<svg viewBox="0 0 480 360" xmlns="http://www.w3.org/2000/svg" width="480" height="360">
  <defs>
    <linearGradient id="bgGrad" x1="0%" y1="0%" x2="100%" y2="100%">
      <stop offset="0%" style="stop-color:#1a1a2e;stop-opacity:1" />
      <stop offset="100%" style="stop-color:#0f0f1e;stop-opacity:1" />
    </linearGradient>
  </defs>

  <rect width="480" height="360" fill="url(#bgGrad)"/>

  <!-- VELOCISTA ROBOT - OPEN STATE (Explotado) -->
  
  <!-- PLACA CENTRAL -->
  <g transform="translate(240, 180)">
    <rect x="-70" y="-40" width="140" height="80" fill="#1a3a5a" stroke="#00d4ff" stroke-width="2" rx="4"/>
    <rect x="-65" y="-35" width="130" height="15" fill="#00d4ff" opacity="0.3"/>
    
    <!-- Componentes principales -->
    <circle cx="-40" cy="-20" r="10" fill="#ff9f00" opacity="0.8"/>
    <circle cx="0" cy="-20" r="10" fill="#ff9f00" opacity="0.8"/>
    <circle cx="40" cy="-20" r="10" fill="#ff9f00" opacity="0.8"/>
    
    <circle cx="-45" cy="15" r="6" fill="#00d4ff" opacity="0.6"/>
    <circle cx="45" cy="15" r="6" fill="#00d4ff" opacity="0.6"/>
  </g>

  <!-- MOTOR DELANTERO IZQUIERDO -->
  <g transform="translate(80, 100)">
    <rect x="-22" y="-35" width="44" height="70" fill="#0a1a2a" stroke="#ff6600" stroke-width="2" rx="3"/>
    <circle cx="0" cy="0" r="18" fill="#1a2a3a" stroke="#ff6600" stroke-width="1"/>
    <circle cx="0" cy="0" r="13" fill="#000" opacity="0.5"/>
  </g>

  <!-- MOTOR DELANTERO DERECHO -->
  <g transform="translate(400, 100)">
    <rect x="-22" y="-35" width="44" height="70" fill="#0a1a2a" stroke="#ff6600" stroke-width="2" rx="3"/>
    <circle cx="0" cy="0" r="18" fill="#1a2a3a" stroke="#ff6600" stroke-width="1"/>
    <circle cx="0" cy="0" r="13" fill="#000" opacity="0.5"/>
  </g>

  <!-- MOTOR TRASERO IZQUIERDO -->
  <g transform="translate(70, 280)">
    <rect x="-20" y="-30" width="40" height="60" fill="#0a1a2a" stroke="#ff6600" stroke-width="1.5" rx="2"/>
    <circle cx="0" cy="0" r="15" fill="#1a2a3a" stroke="#ff6600" stroke-width="1"/>
    <circle cx="0" cy="0" r="11" fill="#000" opacity="0.5"/>
  </g>

  <!-- MOTOR TRASERO DERECHO -->
  <g transform="translate(410, 280)">
    <rect x="-20" y="-30" width="40" height="60" fill="#0a1a2a" stroke="#ff6600" stroke-width="1.5" rx="2"/>
    <circle cx="0" cy="0" r="15" fill="#1a2a3a" stroke="#ff6600" stroke-width="1"/>
    <circle cx="0" cy="0" r="11" fill="#000" opacity="0.5"/>
  </g>

  <!-- RUEDAS -->
  <g transform="translate(60, 260)">
    <circle r="18" fill="#0a0a0a" stroke="#00d4ff" stroke-width="1.5"/>
    <circle r="15" fill="#1a1a2a"/>
  </g>

  <g transform="translate(420, 260)">
    <circle r="18" fill="#0a0a0a" stroke="#00d4ff" stroke-width="1.5"/>
    <circle r="15" fill="#1a1a2a"/>
  </g>

  <g transform="translate(50, 100)">
    <circle r="16" fill="#0a0a0a" stroke="#00d4ff" stroke-width="1.5"/>
    <circle r="14" fill="#1a1a2a"/>
  </g>

  <g transform="translate(430, 100)">
    <circle r="16" fill="#0a0a0a" stroke="#00d4ff" stroke-width="1.5"/>
    <circle r="14" fill="#1a1a2a"/>
  </g>

  <!-- SENSORES -->
  <g transform="translate(240, 50)">
    <rect x="-35" y="-10" width="70" height="20" fill="#0a1a2a" stroke="#ff6600" stroke-width="1" rx="2"/>
    <circle cx="-15" cy="0" r="5" fill="#ff6600" opacity="0.8"/>
    <circle cx="15" cy="0" r="5" fill="#ff6600" opacity="0.8"/>
  </g>

  <!-- LÃNEAS CONECTORAS -->
  <g stroke="#00d4ff" stroke-width="1" opacity="0.3" stroke-dasharray="3,3">
    <line x1="200" y1="240" x2="80" y2="165"/>
    <line x1="280" y1="240" x2="400" y2="165"/>
    <line x1="190" y1="220" x2="70" y2="320"/>
    <line x1="290" y1="220" x2="410" y2="320"/>
    <line x1="240" y1="140" x2="240" y2="80"/>
  </g>

  <!-- Etiqueta -->
  <text x="240" y="350" font-family="Arial" font-size="14" fill="#00d4ff" text-anchor="middle" font-weight="bold">Velocista Pro</text>
</svg>